# xmcd CD database file
#
# Track frame offsets:
#	150
#	43969
#	79243
#	116820
#	148251
#	197644
#	238218
#	269877
#
# Disc length: 3709 seconds
#
# Revision: 2
# Processed by: cddbd v1.5.1PL0 Copyright (c) Steve Scherf et al.
# Submitted via: CDex 1.51
#
DISCID=840e7b08
DTITLE=Zona Tropical - Morning on the river
DYEAR=2000
DGENRE=New Age
TTITLE0=Morning on the river
TTITLE1=Rain dance
TTITLE2=Serenata a la luna
TTITLE3=Kalimba call
TTITLE4=Sinfonia tranquila
TTITLE5=Nocturne
TTITLE6=Playa Junquillal
TTITLE7=Earth beat
EXTD=YEAR: 2000
EXTT0=
EXTT1=
EXTT2=
EXTT3=
EXTT4=
EXTT5=
EXTT6=
EXTT7=
PLAYORDER=
